<?xml version="1.0" encoding="utf-8"?>
<!-- Generator: Adobe Illustrator 26.4.1, SVG Export Plug-In . SVG Version: 6.00 Build 0)  -->
<svg version="1.1" id="Слой_1" xmlns="http://www.w3.org/2000/svg" xmlns:xlink="http://www.w3.org/1999/xlink" x="0px" y="0px"
	 viewBox="0 0 772 190" style="enable-background:new 0 0 772 190;" xml:space="preserve">
<style type="text/css">
	.st0{fill-rule:evenodd;clip-rule:evenodd;fill:#FF0000;}
	.st1{fill:#FF0000;}
	.st2{fill-rule:evenodd;clip-rule:evenodd;fill:#1D1D1B;}
	.st3{fill:#1D1D1B;}
</style>
<g>
	<path class="st0" d="M162.4,0C110,0,67.3,42.7,67.3,95c0,52.3,42.7,95,95.1,95c52.4,0,95.1-42.7,95.1-95
		C257.4,42.7,214.7,0,162.4,0z M162.4,154.6c-36.8,0-66.8-30-66.8-66.8c0-36.8,30-66.8,66.8-66.8c36.8,0,66.8,30,66.8,66.8
		C229.2,124.6,199.2,154.6,162.4,154.6z"/>
	<path class="st0" d="M154.4,42.7c0-4.2-3.4-7.6-7.6-7.6c-4.2,0-7.6,3.4-7.6,7.6c0,4.2,3.4,7.6,7.6,7.6
		C151,50.2,154.4,46.8,154.4,42.7z"/>
	<path class="st1" d="M197.3,63.8c5.5-5,5.8-13.4,0.8-18.9c-5-5.4-13.4-5.8-18.9-0.8c-5.5,5-5.8,13.4-0.8,18.9
		C183.4,68.4,191.9,68.8,197.3,63.8z"/>
	<path class="st0" d="M127.4,65.2c-10.6,0-19.2,8.6-19.2,19.2s8.6,19.2,19.2,19.2s19.2-8.6,19.2-19.2S138,65.2,127.4,65.2z"/>
	<path class="st0" d="M160.8,116.6c-7.2,0-13.1,5.9-13.1,13.1c0,7.2,5.9,13.1,13.1,13.1c7.2,0,13.1-5.9,13.1-13.1
		C173.9,122.5,168,116.6,160.8,116.6z"/>
	<path class="st0" d="M58.8,76.2c0.2-1.3,0.6-2.6,0.9-3.8c0.1-0.3,0.2-0.7,0.3-1.1c0-0.1,0.1-0.3,0.1-0.4c3-11.1,7.6-21.2,13.6-30.3
		c0.2-0.5,0.1-1-0.2-1.4c-0.3-0.5-0.9-0.6-1.5-0.4c-17.7,6.7-37.1,19.5-50.9,43.4c-0.2,0.4-0.2,0.9,0,1.2c0.2,0.4,0.7,0.6,1.1,0.5
		c13.9-2.2,23.9,10.1,12.1,23.2C22.7,120,7,117.2,1.4,115.6c-0.4-0.1-0.8,0-1.1,0.3c-0.3,0.3-0.4,0.8-0.3,1.2
		c5,16.1,35.7,33,51.1,34.7c0,1.4-2.4,6.4-4.8,8.9c-0.2,0.3-0.4,0.6-0.3,1c0,0.4,0.2,0.7,0.6,0.8c2.2,1.3,24.5,8,40.8,13
		c0.6,0.2,1.2-0.1,1.5-0.6c0.3-0.5,0.2-1.2-0.2-1.6C63.4,149,51,112.5,58.8,76.2L58.8,76.2z"/>
	<path class="st0" d="M190.1,96.3l4.6-0.1c0.1,0,0.4,0,0.6,0.1c-4.8,6.5-15.9,13.2-6.3,19.1c9.9,5.3,10.2-7.6,13.4-15
		c0.1,0.1,0.3,0.4,0.4,0.5l2.2,4c7.3,11.2,21-12.2,3.1-22.4C190.2,72,176.8,95.6,190.1,96.3L190.1,96.3z"/>
	<path class="st2" d="M285.2,35.3H329v48.8h-13.5v-37h-16.7v37h-13.5V35.3z M605.9,105.9h13l20.8,49.2h-14.5l-3.6-8.7h-18.8
		l-3.5,8.7h-26.3l-12.3-18.1l-5,5.5v12.6h-13.5v-48.8h13.5v19.8l16.8-19.8h16.1l-18.5,21l16.5,24L605.9,105.9L605.9,105.9z
		 M617.8,135.8l-5.4-13.9l-5.5,13.9H617.8z M490.2,106.3h13.4v27.5l18.9-27.5h12.6v48.8h-13.4v-27.5l-18.9,27.5h-12.6L490.2,106.3
		L490.2,106.3z M443.9,106.3h20.9c12.4,0,20.3,6.3,20.3,17.3c0,11.5-8.9,17.6-21,17.6h-6.7v13.9h-13.5L443.9,106.3L443.9,106.3z
		 M463.9,130.5c4.8,0,7.8-2.5,7.8-6.5c0-4.2-2.9-6.4-7.8-6.4h-6.3v12.9H463.9L463.9,130.5z M395.8,106.3h39.3v11.5h-25.8v5.6h9.4
		c11.3,0,19.6,5.2,19.6,15.7c0,10.5-7.4,16-18.9,16h-23.6L395.8,106.3L395.8,106.3z M418.4,143.7c4.1,0,6.4-1.8,6.4-5.2
		c0-3-2.4-4.9-6.3-4.9h-9.1v10.1L418.4,143.7L418.4,143.7z M357.2,105.9h13l20.8,49.2h-14.5l-3.6-8.7h-18.8l-3.5,8.7h-14.2
		L357.2,105.9z M369.1,135.8l-5.4-13.9l-5.5,13.9H369.1z M515.1,34.9h13l20.8,49.2h-14.5l-3.6-8.7H512l-3.5,8.7h-14.2L515.1,34.9z
		 M527,64.8L521.5,51L516,64.8H527z M479.6,84.1h-35.2V35.3h13.5v37h16.7v-37h13.5v37h4.5v19.2h-13V84.1z M425.7,84.1h-35.2V35.3
		H404v37h16.7v-37h13.5v37h4.5v19.2h-13V84.1z M337.6,35.3H351v27.5l18.9-27.5h12.6v48.8h-13.4V56.6l-18.9,27.5h-12.6V35.3z
		 M313.7,109v-2.8h-13.4v2.8c-15.4,0-24.3,8.7-24.3,20.9c0,12.2,8.8,21.5,24.3,21.5v3.4h13.4v-3.4c15.5,0,24.3-9.2,24.3-21.5
		C338,117.6,329.1,109,313.7,109z M300.4,139.6c-6.3,0-10.7-3.4-10.7-9.5c0-6.2,4.4-9.4,10.7-9.4V139.6z M313.7,139.6v-18.9
		c6.3,0,10.7,3.4,10.7,9.4C324.4,136.1,320,139.6,313.7,139.6z"/>
	<path class="st3" d="M658.7,141.5h-13.8v13.6h13.8V141.5z"/>
	<path class="st2" d="M687,106.2h-21v48.9h13.6v-14h6.7c12.2,0,21-6.1,21-17.6S699.3,106.2,687,106.2L687,106.2z M686,130.5h-6.4
		v-12.9h6.4c4.9,0,7.8,2.2,7.8,6.4C693.7,128.3,690.8,130.5,686,130.5z"/>
	<path class="st2" d="M747.7,109.2v-2.8h-13.4v2.8c-15.4,0-24.3,8.7-24.3,20.9c0,12.2,8.8,21.5,24.3,21.5v3.4h13.4v-3.4
		c15.5,0,24.3-9.2,24.3-21.5S763.1,109.2,747.7,109.2z M734.3,139.9c-6.3,0-10.7-3.4-10.7-9.5c0-6.2,4.4-9.4,10.7-9.4V139.9z
		 M747.7,139.9V121c6.3,0,10.7,3.4,10.7,9.4S754,139.9,747.7,139.9z"/>
</g>
</svg>
