<svg xmlns="http://www.w3.org/2000/svg" viewBox="0 0 110 81">
  <path fill-rule="evenodd" fill="currentColor" d="
    M 69.376,0 C 47.0037,0 28.7563,18.1936 28.7563,40.5
    C 28.7563,62.8064 47.0037,81 69.376,81
    C 91.7483,81 109.996,62.8064 109.996,40.5
    C 109.996,18.1936 91.7483,0 69.376,0 Z
    M 69.376,65.9083 C 53.6543,65.9083 40.8251,53.117 40.8251,37.4416
    C 40.8251,21.7661 53.6455,8.97483 69.376,8.97483
    C 85.1065,8.97483 97.9269,21.7661 97.9269,37.4416
    C 97.9269,53.117 85.0978,65.9083 69.376,65.9083 Z"/>
  <circle fill="currentColor" cx="62.7166" cy="18.1849" r="3.233"/>
  <path fill="currentColor" d="M 84.3152,27.1931 C 86.6443,25.0689 86.8053,21.4643 84.6748,19.142
    C 82.5444,16.8198 78.9291,16.6593 76.6,18.7835
    C 74.2709,20.9077 74.1099,24.5123 76.2404,26.8345
    C 78.3709,29.1568 81.9861,29.3173 84.3152,27.1931 Z"/>
  <circle fill="currentColor" cx="54.4319" cy="35.9603" r="8.182"/>
  <circle fill="currentColor" cx="68.7031" cy="55.3215" r="5.594"/>
  <path fill="currentColor" d="M 25.1295,32.4749
    C 25.2343,31.926 25.3654,31.3771 25.5052,30.8368
    C 26.9385,25.4955 28.9223,21.1562 31.4741,17.2874
    C 31.2556,16.4945 31.0022,16.4248 30.775,16.512
    C 23.2156,19.3787 14.9221,24.8333 9.0057,35.0018
    C 9.11057,35.6815 9.28535,35.7599 9.46887,35.7338
    C 15.4202,34.7753 19.685,40.0208 14.6512,45.6322
    C 9.70483,51.1391 2.9844,49.9454 0.607343,49.2744
    C 0.01308,49.5533 -0.0306159,49.7362 0.0218192,49.9105
    C 2.15418,56.7767 15.2804,63.9914 21.8698,64.7059
    C 21.8698,65.3071 20.8385,67.4245 19.8073,68.4962
    C 19.685,69.0713 19.7723,69.1933 19.9034,69.2717
    C 20.8473,69.8207 30.3904,72.6874 37.3556,74.8309
    C 38.1334,74.3517 38.0984,74.0728 37.9061,73.8899
    C 27.0696,63.5122 21.7998,47.9761 25.1295,32.4662 Z"/>
  <path fill="currentColor" d="M 81.2087,41.0664 L 83.1663,41.0141
    C 81.366,43.7937 76.6294,46.6691 80.7193,49.1699
    C 84.9404,51.4441 85.0715,45.9198 86.426,42.7655
    L 87.5184,44.6824
    C 90.6208,49.4574 96.5023,39.4631 88.8643,35.1151
    C 81.2699,30.6974 75.5283,40.7701 81.2262,41.0577 Z"/>
</svg>
